<svg width="24" height="24" viewBox="0 0 24 24" fill="none" xmlns="http://www.w3.org/2000/svg">
<path d="M11.6667 1C9.557 1 7.49471 1.62559 5.74059 2.79766C3.98646 3.96973 2.61929 5.63563 1.81196 7.58471C1.00462 9.53379 0.793386 11.6785 1.20496 13.7476C1.61654 15.8168 2.63244 17.7174 4.1242 19.2091C5.61596 20.7009 7.51658 21.7168 9.58571 22.1284C11.6548 22.54 13.7995 22.3287 15.7486 21.5214C17.6977 20.714 19.3636 19.3469 20.5357 17.5927C21.7077 15.8386 22.3333 13.7763 22.3333 11.6667C22.3333 8.83769 21.2095 6.12458 19.2091 4.12419C17.2088 2.12381 14.4956 1 11.6667 1V1ZM11.6667 21C9.82071 21 8.01621 20.4526 6.48135 19.427C4.94649 18.4015 3.75021 16.9438 3.0438 15.2384C2.33738 13.5329 2.15255 11.6563 2.51268 9.84582C2.8728 8.03533 3.76172 6.37229 5.06701 5.067C6.3723 3.76171 8.03534 2.8728 9.84583 2.51267C11.6563 2.15254 13.5329 2.33737 15.2384 3.04379C16.9438 3.75021 18.4015 4.94649 19.4271 6.48134C20.4526 8.0162 21 9.82071 21 11.6667C21 14.142 20.0167 16.516 18.2663 18.2663C16.516 20.0167 14.142 21 11.6667 21Z" fill="#E02D21"/>
<path d="M11 15.2693C11 15.7829 11.3951 16.178 11.8955 16.178C12.3959 16.178 12.791 15.7829 12.791 15.2693C12.791 14.7557 12.3959 14.3607 11.8955 14.3607C11.3951 14.3607 11 14.7557 11 15.2693ZM11.4346 13.5442H12.3564L12.6856 8H11.1054L11.4346 13.5442Z" fill="#E02D21"/>
</svg>
